<?xml version="1.0" standalone="no"?>
<!DOCTYPE svg PUBLIC "-//W3C//DTD SVG 20010904//EN"
 "http://www.w3.org/TR/2001/REC-SVG-20010904/DTD/svg10.dtd">
<svg version="1.0" xmlns="http://www.w3.org/2000/svg"
 width="500.000000pt" height="500.000000pt" viewBox="0 0 500.000000 500.000000"
 preserveAspectRatio="xMidYMid meet">
<metadata>
Created by potrace 1.14, written by Peter Selinger 2001-2017
</metadata>
<g transform="translate(0.000000,500.000000) scale(0.100000,-0.100000)"
fill="#000000" stroke="none">
<path d="M3546 4474 c-15 -7 -32 -19 -40 -26 -20 -20 -174 -160 -486 -443
-157 -143 -337 -306 -400 -364 -64 -59 -161 -146 -215 -196 -126 -114 -210
-190 -256 -233 l-37 -34 -43 48 c-24 26 -48 52 -54 58 -5 6 -50 56 -100 111
-49 55 -92 102 -95 105 -3 3 -105 116 -228 252 -209 231 -249 268 -289 262 -7
-1 -20 -2 -28 -3 -8 0 -41 -25 -73 -53 -32 -29 -100 -91 -152 -138 -52 -47
-122 -110 -155 -140 -33 -30 -100 -91 -149 -135 -49 -44 -94 -84 -100 -90 -6
-5 -56 -50 -111 -100 -55 -49 -119 -108 -144 -130 -24 -22 -49 -44 -55 -50
-257 -231 -256 -229 -256 -275 0 -41 16 -67 85 -142 28 -30 86 -94 131 -144
44 -49 186 -205 315 -347 131 -145 245 -280 259 -307 14 -27 43 -68 65 -92 22
-23 105 -115 185 -203 80 -88 149 -165 155 -171 31 -34 170 -187 186 -205 17
-20 90 -100 254 -279 132 -144 246 -269 318 -349 80 -89 115 -111 177 -111 39
0 88 32 170 111 19 19 103 95 185 169 83 74 155 139 161 145 11 10 168 152
188 170 7 6 36 33 66 60 31 28 98 88 149 135 52 47 99 90 105 95 6 6 50 45 99
89 48 43 93 90 100 104 10 22 197 195 877 814 25 23 92 84 150 136 58 53 148
134 200 182 52 48 122 111 155 141 81 72 96 93 100 139 4 48 -11 77 -77 149
-28 31 -166 182 -306 336 -141 154 -296 325 -346 380 -50 55 -116 127 -146
160 -380 418 -377 416 -427 420 -23 1 -53 -3 -67 -11z m300 -400 c119 -130
117 -110 17 -200 -130 -119 -116 -115 -173 -52 -27 29 -69 76 -95 103 l-46 50
44 40 c113 104 159 145 166 145 5 0 44 -39 87 -86z m-290 -280 c49 -53 90
-100 92 -104 3 -8 -192 -190 -204 -190 -8 0 -18 10 -134 141 l-59 65 102 92
c56 50 105 91 108 91 3 1 46 -42 95 -95z m584 -44 c3 -3 24 -26 48 -51 l44
-46 -24 -24 c-22 -22 -150 -139 -268 -247 -25 -23 -48 -42 -51 -42 -6 0 -136
141 -172 187 -19 24 -19 24 1 41 29 26 182 163 207 187 11 11 42 39 68 62 l46
43 48 -53 c26 -28 50 -54 53 -57z m-2967 -12 c9 -13 44 -52 77 -88 l61 -65
-88 -83 -88 -82 -82 87 c-46 49 -82 91 -80 94 4 10 171 159 178 159 4 0 14
-10 22 -22z m2078 -210 c46 -51 87 -94 92 -96 17 -8 4 -32 -35 -65 -24 -20
-70 -61 -103 -92 l-60 -55 -38 42 c-104 115 -147 166 -147 171 0 4 21 26 47
49 26 24 70 64 97 90 28 26 54 48 57 48 4 0 44 -42 90 -92z m1089 5 c12 -16
44 -53 72 -83 28 -30 60 -65 72 -78 l21 -23 -35 -31 c-19 -16 -71 -63 -115
-103 -44 -40 -92 -83 -106 -96 -14 -13 -68 -63 -120 -110 -183 -167 -177 -162
-191 -147 -7 7 -50 54 -96 104 l-83 92 54 51 c30 28 65 60 78 72 32 28 169
152 303 276 61 56 114 102 118 103 4 0 16 -12 28 -27z m-3433 -27 c4 -7 46
-55 93 -106 47 -51 90 -98 95 -104 6 -7 23 -26 39 -43 l29 -32 -45 -41 c-109
-99 -133 -120 -138 -119 -3 0 -38 37 -78 82 -81 92 -132 149 -171 190 l-26 29
85 78 c87 81 103 90 117 66z m549 -82 c38 -42 72 -82 76 -89 8 -13 -149 -165
-170 -165 -5 0 -21 15 -36 33 -14 17 -48 57 -76 87 l-50 55 28 24 c15 14 53
49 84 78 31 29 61 53 65 53 5 0 41 -34 79 -76z m2242 -79 l91 -100 -71 -64
c-39 -36 -86 -79 -106 -96 l-35 -32 -50 56 c-27 31 -57 63 -66 71 -9 8 -29 31
-45 50 l-29 35 99 92 c55 51 104 92 110 91 7 -2 52 -48 102 -103z m-687 -151
l48 -51 -77 -70 c-42 -38 -90 -82 -107 -96 l-30 -26 -25 29 c-14 15 -56 63
-95 105 l-69 77 40 37 c22 20 69 62 104 95 l64 58 50 -53 c27 -30 71 -77 97
-105z m-2310 25 c35 -40 72 -81 82 -93 22 -25 82 -91 151 -165 l49 -53 -39
-35 c-21 -19 -63 -55 -92 -81 l-54 -46 -29 34 c-17 19 -67 74 -112 124 -45 50
-100 110 -122 135 -22 24 -50 56 -63 70 l-24 26 29 24 c15 13 54 48 87 77 32
30 62 54 66 54 3 0 35 -32 71 -71z m3958 -39 c40 -44 82 -91 92 -104 l19 -24
-88 -78 c-48 -44 -93 -85 -100 -91 -7 -7 -17 -13 -21 -13 -5 0 -37 32 -72 72
-35 40 -77 86 -93 102 l-29 30 78 70 c43 39 88 81 99 94 11 12 25 22 31 22 6
0 44 -36 84 -80z m-3012 33 c18 -21 52 -60 77 -88 26 -27 46 -52 46 -55 0 -4
-15 -20 -33 -36 -18 -16 -57 -51 -87 -78 l-54 -48 -83 88 -83 89 77 70 c42 39
82 75 87 82 16 18 19 17 53 -24z m1675 -52 c7 -10 48 -56 91 -102 l78 -84 -43
-39 c-24 -21 -72 -65 -107 -97 l-64 -57 -26 31 c-14 17 -53 60 -86 95 -33 35
-63 70 -67 77 -5 8 19 36 69 81 143 130 134 124 155 95z m-2021 -93 c30 -34
64 -73 76 -87 l23 -26 -28 -25 c-106 -95 -146 -130 -152 -130 -6 0 -63 61
-142 152 -15 18 -15 48 1 48 3 0 38 29 76 65 39 35 75 65 81 65 6 0 35 -28 65
-62z m1449 -193 c0 -15 -9 -24 -104 -110 l-89 -80 -69 75 c-38 41 -81 90 -95
108 l-26 32 68 63 c38 34 82 75 99 90 l31 28 92 -98 c51 -54 93 -102 93 -108z
m-2260 72 l54 -58 -40 -37 c-100 -92 -137 -123 -145 -120 -4 2 -42 41 -84 88
l-77 84 89 82 88 82 31 -32 c16 -17 54 -57 84 -89z m1370 28 c13 -15 14 -14
-129 -142 -32 -29 -38 -30 -51 -17 -13 14 -6 24 70 94 47 44 88 79 91 80 4 0
12 -7 19 -15z m2505 -72 c120 -129 117 -110 24 -195 -45 -40 -100 -90 -122
-111 l-42 -39 -97 104 -98 103 38 35 c115 108 207 190 212 190 3 0 41 -39 85
-87z m-682 64 c7 -7 50 -54 96 -106 l85 -93 -85 -79 c-132 -125 -121 -122
-177 -59 -26 30 -68 77 -94 104 l-48 51 88 81 c48 44 94 88 102 96 19 21 19
21 33 5z m-648 -89 c15 -18 46 -53 69 -78 22 -25 51 -57 64 -72 l23 -26 -47
-43 c-26 -24 -72 -67 -103 -96 l-56 -52 -41 42 c-22 23 -66 71 -98 106 l-57
64 67 61 c37 34 84 76 103 93 20 18 39 33 43 33 3 0 18 -15 33 -32z m-1512
-236 l-88 -82 -72 77 c-40 43 -72 80 -72 83 0 3 40 40 87 83 l87 77 73 -77 73
-78 -88 -83z m-451 170 c2 -5 35 -44 73 -86 39 -43 70 -82 70 -87 0 -16 -166
-158 -178 -152 -7 3 -45 42 -84 88 l-73 83 88 81 c88 81 98 88 104 73z m-402
-65 c33 -35 69 -76 80 -90 25 -31 32 -20 -80 -121 l-75 -67 -82 88 -83 88 88
82 c48 46 88 83 90 83 1 0 29 -29 62 -63z m2797 -142 c48 -53 89 -100 91 -104
2 -5 -29 -37 -69 -72 -39 -35 -83 -76 -97 -91 -14 -16 -30 -28 -36 -27 -13 1
-186 193 -186 206 0 5 17 23 38 40 20 18 64 57 97 87 33 31 63 56 67 56 3 0
46 -43 95 -95z m-1237 -48 c0 -7 -14 -24 -31 -36 l-31 -23 -53 58 -53 59 31
33 31 32 53 -55 c29 -31 53 -61 53 -68z m1757 76 c23 -27 64 -73 92 -103 l51
-55 -58 -55 c-60 -57 -211 -194 -248 -227 -12 -10 -63 -56 -114 -103 -51 -47
-98 -89 -104 -95 -6 -5 -59 -54 -118 -107 -58 -54 -110 -98 -115 -98 -12 0
-186 196 -183 207 1 4 37 39 79 77 42 38 94 85 116 105 22 20 119 109 215 196
96 88 193 176 215 196 83 77 120 109 126 109 3 0 24 -21 46 -47z m-1255 -25
c17 -18 53 -58 82 -88 85 -91 83 -87 50 -115 l-29 -25 -39 42 c-22 24 -63 69
-93 100 -29 32 -53 61 -53 65 0 7 41 53 48 53 2 0 17 -15 34 -32z m-1410 -75
c35 -33 35 -46 2 -72 -15 -12 -54 -46 -86 -77 -59 -54 -61 -55 -80 -37 -50 45
-47 52 43 135 46 43 86 78 88 78 3 0 18 -12 33 -27z m-401 -64 c41 -45 75 -85
77 -90 2 -5 -16 -26 -40 -48 -24 -21 -63 -57 -88 -79 l-45 -41 -25 28 c-14 15
-50 55 -81 90 l-56 63 51 47 c97 90 121 111 127 111 3 0 39 -37 80 -81z m1154
-41 c6 -5 5 -12 -3 -20 -10 -10 -20 -5 -50 28 -77 85 -77 85 -63 93 9 6 28 -8
59 -43 26 -28 51 -54 57 -58z m209 10 c-19 -17 -37 -28 -40 -25 -8 8 57 68 67
61 5 -3 -7 -19 -27 -36z m845 -60 c27 -29 67 -73 89 -98 44 -48 50 -64 28 -77
-8 -4 -42 -35 -77 -67 l-62 -59 -35 39 c-19 21 -56 62 -81 89 -85 92 -85 78
-1 156 41 38 79 69 83 69 5 0 30 -24 56 -52z m-1118 -96 c21 -24 39 -47 39
-51 0 -11 -91 -93 -99 -89 -3 2 -33 32 -66 66 l-60 64 54 49 54 49 19 -23 c11
-12 37 -41 59 -65z m367 -65 l-89 -80 -29 34 c-16 19 -29 37 -30 40 0 3 15 18
33 34 17 16 56 51 86 78 l55 49 32 -37 32 -37 -90 -81z m-227 100 c-13 -13
-26 -3 -16 12 3 6 11 8 17 5 6 -4 6 -10 -1 -17z m-1051 -49 c0 -10 -28 -37
-121 -118 -42 -37 -59 -46 -67 -38 -19 19 -15 26 41 77 111 102 121 110 134
99 7 -6 13 -15 13 -20z m1469 -80 l24 -30 -34 -32 c-19 -17 -59 -53 -88 -80
l-54 -50 -29 33 -30 33 39 35 c83 76 137 123 143 122 3 0 16 -14 29 -31z
m-936 -112 c-99 -90 -93 -88 -135 -41 l-37 41 75 67 76 68 37 -43 38 -42 -54
-50z m608 -125 l49 -55 -57 -50 c-94 -85 -83 -84 -144 -14 -29 34 -64 72 -76
84 -13 13 -23 27 -23 31 0 4 30 36 67 70 l68 61 34 -36 c18 -21 55 -61 82 -91z
m432 67 c-48 -51 -83 -72 -96 -59 -18 18 90 116 110 100 11 -10 9 -17 -14 -41z
m-895 -40 c-131 -120 -124 -116 -150 -86 l-20 23 73 68 73 67 24 -24 25 -24
-25 -24z m-319 -105 l91 -102 -47 -43 c-26 -24 -65 -60 -87 -81 -23 -20 -43
-36 -47 -35 -3 2 -47 49 -97 105 l-92 101 87 81 c48 45 90 80 94 79 4 -2 48
-49 98 -105z m1354 -59 l-55 -50 -49 50 -48 51 52 52 52 52 52 -52 52 -52 -56
-51z m-325 -61 l71 -78 -37 -33 c-20 -19 -53 -49 -73 -67 l-36 -33 -24 27
c-14 14 -47 50 -74 79 l-49 54 69 64 c39 35 73 63 76 64 4 0 39 -35 77 -77z
m-672 49 c10 -15 4 -24 -33 -56 -40 -34 -46 -37 -59 -24 -14 13 -11 20 28 56
24 23 45 42 48 42 3 0 10 -8 16 -18z m132 -142 l42 -47 -42 -42 c-24 -22 -45
-41 -48 -40 -3 1 -25 23 -50 51 l-44 49 44 40 c24 21 46 39 49 38 3 -1 25 -22
49 -49z m1121 -21 l64 -71 -31 -30 c-26 -26 -32 -29 -44 -17 -7 8 -38 40 -68
72 l-54 58 30 29 c16 16 31 29 34 29 3 1 34 -31 69 -70z m-1380 -21 c27 -29
69 -75 94 -103 l46 -50 -52 -49 c-29 -27 -68 -64 -88 -83 l-36 -35 -41 44
c-116 124 -134 144 -142 159 -7 12 11 33 77 92 47 42 88 77 90 77 2 0 26 -24
52 -52z m1185 -71 c11 -13 40 -45 64 -71 35 -38 41 -50 32 -62 -10 -11 -23 -3
-76 54 -62 65 -71 81 -57 95 10 11 14 9 37 -16z m-611 -234 c-49 -46 -91 -82
-94 -80 -3 1 -34 34 -68 72 l-62 70 78 71 c43 39 83 76 88 82 7 8 30 -10 78
-61 l67 -72 -87 -82z m531 103 l80 -88 -35 -31 c-71 -66 -63 -66 -123 -1 -29
33 -72 79 -94 104 l-42 45 50 48 c57 55 36 65 164 -77z m-224 -268 c28 -31 46
-58 41 -60 -5 -1 -37 -29 -71 -61 -34 -32 -65 -57 -69 -55 -4 2 -48 48 -98
103 l-91 100 71 67 72 67 48 -52 c26 -28 70 -77 97 -109z m-531 85 l61 -68
-47 -44 c-27 -24 -67 -61 -90 -83 l-42 -38 -39 42 c-22 24 -51 57 -65 74 l-26
31 67 59 c36 32 73 67 82 76 8 9 20 17 26 17 7 1 39 -29 73 -66z m260 -289
c33 -36 61 -70 61 -74 0 -8 -155 -153 -169 -158 -6 -2 -129 126 -135 140 -2 5
167 158 175 158 4 0 34 -30 68 -66z"/>
</g>
</svg>
